<svg xmlns="http://www.w3.org/2000/svg" viewBox="0 0 300 300">
  <path d="M38.5 0h223C282.7 0 300 17.3 300 38.5v223c0 21.2-17.3 38.5-38.5 38.5h-223C17.3 300 0 282.7 0 261.5v-223C0 17.3 17.3 0 38.5 0zm180 33.3c-7.4 0-13.5 6-13.5 13.6V79c0 7.4 6 13.5 13.5 13.5h34c7.4 0 13.5-6 13.5-13.5V47c0-7.6-6-13.7-13.6-13.7h-34zM266 127h-26.3c2.5 8 3.8 16.7 3.8 25.6 0 50-41.7 90.4-93.2 90.4S57 202.5 57 152.6c0-9 1.4-17.6 4-25.7H33.3v126.6c0 6.6 5.3 12 12 12H254c6.5 0 12-5.4 12-12V127zM150.4 91C117 91 90 117 90 149.4c0 32.2 27 58.3 60.3 58.3s60.2-26 60.2-58.3-27-58.4-60.2-58.4z" fill="#401c06"/>
</svg>
