<svg xmlns="http://www.w3.org/2000/svg" viewBox="0 0 578.106 578.106">
  <path fill="#d02128" d="M577.8 456c1.3 9.5-1.6 17.7-8.5 24.6L488 561.4c-3.8 4-8.6 7.5-14.5 10.4-6 3-11.7 4.7-17.5 5.5-.4 0-1.6 0-3.6.3-2 .2-4.7.3-8 .3-7.7 0-20.3-1.4-37.6-4s-38.6-9.2-63.7-19.6c-25-10.4-53.4-26-85.2-47-32-20.7-65.7-49.2-101.6-85.5-28.6-28.3-52.3-55.2-71-81-18.8-25.6-34-49.4-45.3-71.2-11.5-22-20-41.6-25.8-59.4s-9.6-33-11.6-46-3-22.8-2.5-30.2L.8 122c.8-5.7 2.7-11.6 5.5-17.5s6.3-10.7 10.4-14.3L98 8.8C103.7 3 110.3.2 117.6.2c5.3 0 10 1.5 14 4.6s7.6 6.8 10.5 11.3l65.6 124.3c3.6 6.6 4.7 13.7 3 21.5-1.6 7.7-5 14.2-10.4 19.5l-30 30c-.8.8-1.5 2.2-2 4s-1 3.4-1 4.6c1.6 8.5 5.3 18.3 11 29.3 5 9.8 12.4 21.7 22.6 35.8s24.7 30.4 43.5 48.7c18.3 18.8 34.7 33.4 49 43.8 14.2 10.4 26.2 18 35.8 23 9.6 4.8 17 7.8 22 8.8l7.7 1.5c.8 0 2.2-.3 4-1 1.8-.5 3.2-1.2 4-2l35-35.5c7.2-6.5 15.8-9.8 25.6-9.8 7 0 12.4 1.2 16.5 3.7h.6l118 69.7c8.7 5.2 13.8 12 15.4 20z"/>
</svg>