<svg xmlns="http://www.w3.org/2000/svg" viewBox="0 0 304.4 304.4">
  <path d="M262 175.6c10 9.8 20.7 19 29.8 30 4 4.8 7.7 9.8 10.6 15.4 4 8 .4 16.7-6.7 17h-44.3c-11.5 1-20.6-3.5-28.3-11.4-6-6.2-11.7-13-17.6-19.3-2.4-2.7-5-5.2-8-7-6-4-11.3-2.8-14.8 3.5-3.5 6.4-4.3 13.5-4.6 20.7-.5 10.4-3.7 13-14 13.6-22.6 1.2-43.8-2.2-63.6-13.5-17.4-10-31-24-42.7-40-23-31-40.4-65-56.2-100C-2 76.4.5 72 9.3 72c14.5-.2 29-.2 43.4 0 6 0 9.8 3.5 12 9 8 19.3 17.4 37.6 29.5 54.6 3.2 4.5 6.4 9 11 12.2 5.2 3.5 9 2.4 11.6-3.4 1.5-3.6 2.2-7.5 2.5-11.4 1.2-13.4 1.3-26.8-.7-40-1.2-8.4-6-13.8-14.2-15.4-4.3-.8-3.6-2.4-1.6-4.8 3.6-4 7-6.7 13.6-6.7h50c8 1.6 9.8 5.2 10.8 13V135c0 3 1.6 12.2 7.2 14.2 4.4 1.4 7.3-2 10-5 12-12.7 20.5-27.7 28.2-43.3 3.4-6.8 6.3-14 9-21 2.2-5.3 5.5-8 11.4-7.8h48.3c1.4 0 3 0 4.2.2 8.2 1.4 10.4 5 8 12.8-4 12.4-11.8 22.8-19.3 33.2-8 11.2-16.6 22-24.6 33-7.3 10.3-6.8 15.5 2.3 24.4zm0 0" fill-rule="evenodd" clip-rule="evenodd" fill="#401c06"/>
</svg>
