<svg width="100" height="100" fill-rule="evenodd" stroke-linejoin="round" stroke-miterlimit="1.41" clip-rule="evenodd" viewBox="0 0 100 100">
  <path fill-rule="nonzero" d="M72.496 5.019L60.825 5C47.714 5 39.24 13.693 39.24 27.149v10.212H27.506a1.836 1.836 0 0 0-1.836 1.836v14.796c0 1.014.823 1.835 1.836 1.835H39.24v37.336c0 1.014.821 1.835 1.835 1.835h15.311a1.835 1.835 0 0 0 1.835-1.835V55.828h13.72a1.834 1.834 0 0 0 1.835-1.835l.006-14.796a1.838 1.838 0 0 0-1.836-1.836H58.221v-8.657c0-4.161.991-6.273 6.411-6.273l7.862-.003a1.836 1.836 0 0 0 1.835-1.835V6.854a1.836 1.836 0 0 0-1.833-1.835z"/>
</svg>
