<svg width="100" height="100" fill-rule="evenodd" stroke-linejoin="round" stroke-miterlimit="1.41" clip-rule="evenodd" viewBox="0 0 100 100">
  <g fill-rule="nonzero">
    <path d="M70.162 5H29.836C16.141 5 5 16.142 5 29.837v40.326c0 13.695 11.141 24.836 24.836 24.836h40.326c13.696 0 24.837-11.142 24.837-24.836V29.837C95 16.142 83.858 5 70.162 5zm16.853 65.163c0 9.292-7.56 16.851-16.852 16.851H29.836c-9.291.001-16.851-7.559-16.851-16.851V29.837c0-9.292 7.56-16.852 16.851-16.852h40.326c9.292 0 16.852 7.56 16.852 16.852v40.326h.001z"/>
    <path d="M50 26.81c-12.788 0-23.191 10.403-23.191 23.191C26.809 62.788 37.212 73.19 50 73.19c12.787 0 23.19-10.402 23.19-23.189C73.19 37.213 62.787 26.81 50 26.81zm0 38.395c-8.384 0-15.206-6.821-15.206-15.205S41.615 34.795 50 34.795c8.384 0 15.205 6.821 15.205 15.205S58.384 65.205 50 65.205z"/>
    <path d="M74.163 20.039c-1.539 0-3.05.623-4.136 1.714a5.884 5.884 0 0 0-1.72 4.142c0 1.539.628 3.05 1.72 4.142a5.899 5.899 0 0 0 4.136 1.714c1.544 0 3.05-.628 4.142-1.714a5.902 5.902 0 0 0 1.714-4.142 5.883 5.883 0 0 0-1.714-4.142 5.883 5.883 0 0 0-4.142-1.714z"/>
  </g>
</svg>
