<svg width="100" height="100" fill-rule="evenodd" stroke-linejoin="round" stroke-miterlimit="1.41" clip-rule="evenodd" viewBox="0 0 100 100">
  <path id="Phone" fill-rule="nonzero" d="M20.892 5c-6.321 0-12.643 6.97-13.663 8.405l-.408.41-.203.616c-8.769 20.296 20.8 50.842 24.47 54.533C33.943 71.834 58.006 95 77.379 95c3.059 0 5.71-.615 8.157-1.64l.612-.205.408-.41c1.835-1.435 11.011-9.636 7.749-17.016-1.224-2.87-11.216-13.531-23.859-15.581l-.816-.205-.816.205c-.612.205-4.894 1.025-11.012 5.125-2.039-1.025-6.117-3.895-12.847-10.455-6.525-6.561-9.38-10.661-10.4-12.711 3.875-6.15 4.894-10.456 5.098-10.866l.204-.82-.204-.82C37.614 16.891 26.806 7.05 23.951 5.615 23.135 5.205 22.116 5 20.892 5z"/>
</svg>
