<svg width="100" height="100" fill-rule="evenodd" stroke-linejoin="round" stroke-miterlimit="1.41" clip-rule="evenodd" viewBox="0 0 100 100">
  <clipPath id="_clip1">
    <rect id="vk" width="90" height="90" x="5" y="5"/>
  </clipPath>
  <g clip-path="url(#_clip1)">
    <path id="XMLID_807_" d="M82.458 56.918c2.985 2.915 6.136 5.657 8.814 8.866 1.183 1.426 2.302 2.897 3.159 4.552 1.214 2.352.115 4.941-1.995 5.081l-13.111-.006c-3.382.281-6.08-1.08-8.348-3.392-1.815-1.849-3.496-3.817-5.242-5.729-.715-.781-1.464-1.516-2.359-2.097-1.79-1.162-3.344-.806-4.367 1.061-1.041 1.898-1.278 4.001-1.38 6.117-.14 3.087-1.074 3.899-4.175 4.04-6.628.313-12.918-.69-18.761-4.033-5.152-2.948-9.147-7.109-12.624-11.82-6.77-9.173-11.955-19.253-16.615-29.615-1.048-2.334-.281-3.587 2.295-3.632 4.277-.083 8.554-.077 12.836-.006 1.738.026 2.889 1.023 3.561 2.665 2.314 5.69 5.145 11.104 8.7 16.122.946 1.336 1.911 2.672 3.286 3.613 1.52 1.041 2.678.696 3.393-.998.454-1.074.653-2.231.755-3.381.339-3.958.384-7.908-.211-11.852-.364-2.461-1.751-4.054-4.207-4.52-1.253-.237-1.066-.704-.459-1.419 1.054-1.234 2.045-2.001 4.021-2.001h14.818c2.332.46 2.85 1.508 3.17 3.855l.012 16.46c-.025.909.454 3.605 2.091 4.207 1.31.428 2.174-.62 2.96-1.451 3.547-3.765 6.079-8.215 8.342-12.823 1.003-2.026 1.867-4.131 2.703-6.233.62-1.56 1.593-2.328 3.35-2.294l14.261.013c.423 0 .851.006 1.261.076 2.403.41 3.061 1.443 2.319 3.79-1.169 3.682-3.445 6.75-5.67 9.833-2.378 3.29-4.922 6.469-7.28 9.779-2.167 3.023-1.995 4.547.697 7.172z"/>
  </g>
</svg>
