<?xml version="1.0" encoding="UTF-8" standalone="no"?><!DOCTYPE svg PUBLIC "-//W3C//DTD SVG 1.1//EN" "http://www.w3.org/Graphics/SVG/1.1/DTD/svg11.dtd"><svg width="100%" height="100%" viewBox="0 0 50 50" version="1.1" xmlns="http://www.w3.org/2000/svg" xmlns:xlink="http://www.w3.org/1999/xlink" xml:space="preserve" style="fill-rule:evenodd;clip-rule:evenodd;stroke-linejoin:round;stroke-miterlimit:1.41421;"><rect id="Artboard1" x="0" y="0" width="50" height="50" style="fill:none;"/><clipPath id="_clip1"><rect id="Artboard11" x="0" y="0" width="50" height="50"/></clipPath><g clip-path="url(#_clip1)"><g><path d="M24.835,1.362c-0.242,0 -0.472,0.116 -0.622,0.281c-5.053,5.484 -8.333,14.559 -8.296,24.841c-2.693,3.052 -4.378,7.509 -4.357,12.481c0.008,1.763 0.23,6.977 0.634,8.573c0.002,0.012 0.018,0.074 0.018,0.074c0.103,0.342 0.42,0.592 0.794,0.593c0.125,0.002 0.242,-0.025 0.347,-0.075c0,0 0.081,-0.04 0.114,-0.062l5.131,-6.395c0.348,0.927 0.725,1.826 1.131,2.688c0.136,0.276 0.418,0.468 0.745,0.469l9.103,0.04c0.327,0.001 0.609,-0.187 0.741,-0.462c0.398,-0.859 0.768,-1.754 1.108,-2.68l5.156,6.441c0.034,0.022 0.114,0.063 0.114,0.063c0.107,0.05 0.223,0.078 0.348,0.079c0.374,0.002 0.689,-0.246 0.789,-0.587c0,0 0.015,-0.061 0.018,-0.074c0.389,-1.593 0.597,-6.805 0.589,-8.567c-0.022,-4.972 -1.747,-9.445 -4.466,-12.52c-0.055,-10.283 -3.414,-19.386 -8.515,-24.915c-0.151,-0.166 -0.382,-0.284 -0.624,-0.286Zm6.831,17.762c0.425,2.427 0.645,4.944 0.657,7.478c0.011,2.535 -0.189,5.05 -0.591,7.472c-0.39,2.346 -0.971,4.608 -1.727,6.725c0,0 0,0 0,0c-0.515,1.448 -1.888,2.413 -3.424,2.406c-0.986,-0.004 -2.119,-0.009 -3.106,-0.013c-1.551,-0.007 -2.934,-0.979 -3.465,-2.436c0,0 0,0 0,0c-0.774,-2.124 -1.375,-4.392 -1.785,-6.741c-0.425,-2.427 -0.645,-4.943 -0.657,-7.477c-0.01,-2.535 0.188,-5.049 0.591,-7.473c0.073,-0.438 0.152,-0.873 0.238,-1.304c0.605,-3.095 3.323,-5.324 6.477,-5.31c0,-0.005 0,-0.005 0,-0.005c3.18,0.014 5.914,2.257 6.549,5.373c0.084,0.433 0.167,0.868 0.243,1.305Zm-4.513,-12.471c0.515,0.841 0.533,1.895 0.049,2.755c-0.484,0.859 -1.395,1.388 -2.382,1.384c0,0.002 0,0.002 0,0.002c-0.971,-0.005 -1.864,-0.53 -2.34,-1.376c-0.476,-0.845 -0.461,-1.882 0.039,-2.714c0.715,-1.19 1.493,-2.285 2.325,-3.268c0.824,0.971 1.597,2.048 2.309,3.217Z" style="fill:#76e5ee;fill-rule:nonzero;"/><path d="M25,15.196c2.186,0 3.96,1.774 3.96,3.96c0,2.185 -1.774,3.96 -3.96,3.96c-2.186,0 -3.96,-1.775 -3.96,-3.96c0,-2.186 1.774,-3.96 3.96,-3.96Zm0,1.98c1.093,0 1.98,0.887 1.98,1.98c0,1.093 -0.887,1.98 -1.98,1.98c-1.093,0 -1.98,-0.887 -1.98,-1.98c0,-1.093 0.887,-1.98 1.98,-1.98Z" style="fill:#cdcdd4;"/><ellipse cx="25" cy="37.222" rx="1.465" ry="11.089" style="fill:#76e5ee;"/></g></g></svg>
